<svg width="82" height="82" viewBox="0 0 82 82" fill="none" xmlns="http://www.w3.org/2000/svg">
<path d="M59.6932 22.3068L54.6064 17.22L2.33492 34.6346C1.79741 34.8126 1.42163 35.2989 1.38498 35.864C1.34833 36.429 1.65813 36.9598 2.16814 37.2058L30.3956 50.9651C30.6764 51.0976 30.9024 51.3236 31.0349 51.6044L44.7942 79.8318C45.0402 80.3418 45.571 80.6516 46.136 80.615C46.7011 80.5783 47.1874 80.2026 47.3654 79.6651L64.78 27.3936L59.6932 22.3068Z" fill="#F3D55B"/>
<path d="M64.78 27.3935L47.3654 79.6651C47.1874 80.2026 46.7011 80.5783 46.136 80.615C45.571 80.6516 45.0402 80.3419 44.7942 79.8318L31.0349 51.6044C30.968 51.4657 30.8788 51.339 30.7708 51.2291L45.2946 36.7054L49.2278 32.7722L59.6932 22.3068L64.78 27.3935Z" fill="#F0C419"/>
<path d="M68.1017 27.7966C75.7775 27.7966 82 21.5741 82 13.8983C82 6.22248 75.7775 0 68.1017 0C60.4259 0 54.2034 6.22248 54.2034 13.8983C54.2034 21.5741 60.4259 27.7966 68.1017 27.7966Z" fill="#FF5364"/>
<path d="M1.476 82C0.852188 82.0009 0.304225 81.586 0.135847 80.9853C-0.0325321 80.3846 0.219927 79.7454 0.753288 79.4219C2.68523 78.2381 4.46655 76.8245 6.05827 75.2121C7.72389 73.5728 9.23543 71.784 10.5738 69.8682C7.64921 69.0182 4.99241 67.4302 2.85888 65.2567C1.15669 63.8046 0.123538 61.7187 0 59.4847C0.148034 57.1087 1.54516 54.9895 3.67054 53.9171C5.58621 52.8725 7.81552 52.5575 9.94563 53.0304C12.0626 53.4992 13.9199 54.7603 15.1366 56.555C16.3633 58.5371 16.8069 60.9053 16.3805 63.197C16.1283 64.7278 15.6736 66.2183 15.0282 67.6291C15.5261 67.6091 16.0218 67.5519 16.5112 67.4582C22.1108 66.395 25.2782 60.6272 24.9989 55.8934C24.9698 55.3969 25.2079 54.9226 25.6234 54.6491C26.0389 54.3757 26.5687 54.3447 27.0132 54.5678C27.4578 54.7909 27.7495 55.2343 27.7785 55.7308C28.126 61.6362 24.1191 68.8439 17.0352 70.185C15.8901 70.3989 14.7224 70.4652 13.5606 70.3824C11.9825 72.8469 10.1296 75.1242 8.03739 77.1703C6.28582 78.9429 4.32575 80.4965 2.2001 81.7971C1.98197 81.93 1.73143 82.0002 1.476 82ZM8.0082 55.5932C6.96273 55.5899 5.93307 55.8484 5.01312 56.3451C3.768 56.9487 2.92329 58.153 2.77966 59.5292C2.93691 61.0039 3.67203 62.3562 4.8241 63.2901C6.63088 65.1389 8.88638 66.4874 11.3702 67.2039C11.6023 67.2678 11.8344 67.3248 12.0651 67.3762C12.829 65.929 13.3582 64.3696 13.6328 62.7564C13.9473 61.1504 13.6546 59.4849 12.8115 58.0824C11.9866 56.891 10.743 56.0543 9.32854 55.7391C8.89564 55.6419 8.45329 55.593 8.00959 55.5932H8.0082Z" fill="#FF5364"/>
<path d="M68.1017 16.678C67.3341 16.678 66.7118 16.0557 66.7118 15.2881V5.55933C66.7118 4.79174 67.3341 4.16949 68.1017 4.16949C68.8693 4.16949 69.4915 4.79174 69.4915 5.55933V15.2881C69.4915 16.0557 68.8693 16.678 68.1017 16.678Z" fill="white"/>
<path d="M68.1017 23.6271C67.3341 23.6271 66.7118 23.0049 66.7118 22.2373V20.8475C66.7118 20.0799 67.3341 19.4576 68.1017 19.4576C68.8693 19.4576 69.4915 20.0799 69.4915 20.8475V22.2373C69.4915 23.0049 68.8693 23.6271 68.1017 23.6271Z" fill="white"/>
</svg>
