<svg width="84" height="84" viewBox="0 0 84 84" fill="none" xmlns="http://www.w3.org/2000/svg">
<path d="M33.3492 14.9027C37.1848 14.9027 40.2941 11.7933 40.2941 7.9577C40.2941 4.1221 37.1848 1.01274 33.3492 1.01274C29.5136 1.01274 26.4042 4.1221 26.4042 7.9577C26.4042 11.7933 29.5136 14.9027 33.3492 14.9027Z" fill="#F8AD3E"/>
<path d="M31.4746 7.9577C31.4746 5.01719 33.303 2.5053 35.8844 1.4924C35.0988 1.18412 34.2443 1.01291 33.3492 1.01291C29.5136 1.01291 26.4042 4.12226 26.4042 7.9577C26.4042 11.7933 29.5136 14.9027 33.3492 14.9027C34.2443 14.9027 35.0988 14.7314 35.8844 14.4232C33.3032 13.4101 31.4746 10.8984 31.4746 7.9577Z" fill="#ED8D00"/>
<path d="M60.8069 55.5691L33.3492 63.7809L5.89151 55.5691C7.08221 53.0885 7.73224 50.3518 7.80306 47.5629C8.2932 28.1806 11.7421 9.30508 33.3494 9.30508C54.9581 9.30508 58.4055 28.1806 58.8957 47.5629C58.9661 50.3518 59.6179 53.0885 60.8069 55.5691Z" fill="#F4E74D"/>
<path d="M10.9619 55.5691C12.1526 53.0885 12.8027 50.3517 12.8735 47.5629C13.3437 28.9658 16.5411 10.8387 35.8846 9.40007C35.0676 9.33923 34.2249 9.30508 33.3492 9.30508C11.7421 9.30508 8.29303 28.1806 7.80306 47.5629C7.73224 50.3517 7.08221 53.0885 5.89151 55.5691L33.3492 63.7809L35.8844 63.0227L10.9619 55.5691Z" fill="#F8AD3E"/>
<path d="M20.7857 67.1393V71.4365C20.7857 78.3751 26.4105 84 33.3492 84C40.2877 84 45.9127 78.3752 45.9127 71.4365V67.1393H20.7857Z" fill="#F4E74D"/>
<path d="M25.8561 71.4365V67.1393H20.7857V71.4365C20.7857 78.3751 26.4105 84 33.3492 84C34.2178 84 35.0655 83.9118 35.8844 83.744C30.1611 82.5713 25.8561 77.5067 25.8561 71.4365Z" fill="#F8AD3E"/>
<path d="M19.2431 43.6731C18.5428 43.6731 17.9755 43.1055 17.9755 42.4055V39.6948C17.9755 38.9948 18.5428 38.4272 19.2431 38.4272C19.9433 38.4272 20.5107 38.9948 20.5107 39.6948V42.4055C20.5107 43.1055 19.9433 43.6731 19.2431 43.6731Z" fill="#42394B"/>
<path d="M47.4552 43.6731C46.755 43.6731 46.1876 43.1055 46.1876 42.4055V39.6948C46.1876 38.9948 46.755 38.4272 47.4552 38.4272C48.1554 38.4272 48.7228 38.9948 48.7228 39.6948V42.4055C48.7228 43.1055 48.1553 43.6731 47.4552 43.6731Z" fill="#42394B"/>
<path d="M33.3491 45.2866C31.5576 45.2866 29.8538 44.5107 28.6745 43.1576C28.2145 42.6297 28.2696 41.8291 28.7974 41.3691C29.3251 40.9092 30.1257 40.9639 30.5859 41.4918C31.2834 42.2922 32.2908 42.7513 33.3493 42.7513C34.408 42.7513 35.4152 42.2922 36.1127 41.4918C36.5724 40.9639 37.3733 40.909 37.901 41.3689C38.4288 41.8288 38.4839 42.6296 38.024 43.1574C36.8448 44.5107 35.1408 45.2866 33.3491 45.2866Z" fill="#42394B"/>
<path d="M61.0562 71.9925H5.6439C2.38683 71.9925 0.0240164 68.9123 0.844242 65.7597C1.66616 62.6003 3.01675 60.1078 4.30514 58.2789C4.90971 57.42 5.44024 56.5122 5.89151 55.5691H60.8069C61.2582 56.5122 61.7887 57.42 62.3933 58.2789C63.6816 60.1078 65.0322 62.6003 65.8542 65.7597C66.6744 68.9124 64.3116 71.9925 61.0562 71.9925Z" fill="#F8AD3E"/>
<path d="M5.91466 65.7597C6.73658 62.6003 8.08717 60.1078 9.37556 58.2789C9.98013 57.42 10.5107 56.5122 10.9619 55.5691H5.89151C5.44024 56.5122 4.90971 57.42 4.30514 58.2789C3.01675 60.1078 1.66616 62.6003 0.844242 65.7597C0.0240165 68.9123 2.38683 71.9925 5.6439 71.9925H10.7143C7.45726 71.9925 5.09444 68.9124 5.91466 65.7597Z" fill="#ED8D00"/>
<path d="M64.6016 37.4363C74.9393 37.4363 83.3197 29.0559 83.3197 18.7181C83.3197 8.3804 74.9393 0 64.6016 0C54.2639 0 45.8835 8.3804 45.8835 18.7181C45.8835 29.0559 54.2639 37.4363 64.6016 37.4363Z" fill="#FF7F5A"/>
<path d="M69.672 34.0558C59.3343 34.0558 50.9539 25.6756 50.9539 15.3377C50.9539 9.93431 53.2444 5.06671 56.9062 1.65009C50.4068 4.58501 45.8835 11.1233 45.8835 18.718C45.8835 29.0557 54.2639 37.4361 64.6016 37.4361C69.536 37.4361 74.0235 35.5259 77.3674 32.4057C75.02 33.4658 72.4149 34.0558 69.672 34.0558Z" fill="#FF5D29"/>
<path d="M68.1777 24.9216C68.1777 26.5473 66.792 27.87 65.0888 27.87C63.3857 27.87 62 26.5473 62 24.9216C62 23.2958 63.3857 21.9731 65.0888 21.9731C66.792 21.9731 68.1777 23.2958 68.1777 24.9216ZM62.3575 9.92872L62.8826 19.9534C62.9073 20.4242 63.3143 20.7938 63.8081 20.7938H66.3695C66.8633 20.7938 67.2704 20.4242 67.295 19.9534L67.8201 9.92872C67.8466 9.42347 67.4246 9 66.8947 9H63.283C62.7531 9 62.3311 9.42347 62.3575 9.92872Z" fill="white"/>
</svg>
